# xmcd
# Copyright (C) 1995-1998 Ti Kan
#
# Track frame offsets:
#       150
#       14887
#       32072
#       50365
#       54327
#       67702
#
# Disc length: 1165 seconds
#
# Revision: 0
# Processed by: cddbd v1.4PL0 Copyright (c) Steve Scherf et al.
# Submitted via: CD-Transfer v1.0
#
DISCID=47048b06
DTITLE=Pink Willy - One
DYEAR=1999
DGENRE=
TTITLE0=Black Night
TTITLE1=Action
TTITLE2=Jump
TTITLE3=Seppel Intro
TTITLE4=Äm Seppel Sin Kiosk
TTITLE5=Here I Go Again
EXTD=
EXTT0=
EXTT1=
EXTT2=
EXTT3=
EXTT4=
EXTT5=
PLAYORDER=
